<?xml version="1.0" standalone="no"?>
<!DOCTYPE svg PUBLIC "-//W3C//DTD SVG 20010904//EN"
 "http://www.w3.org/TR/2001/REC-SVG-20010904/DTD/svg10.dtd">
<svg version="1.0" xmlns="http://www.w3.org/2000/svg"
 width="500.000000pt" height="500.000000pt" viewBox="0 0 500.000000 500.000000"
 preserveAspectRatio="xMidYMid meet">

<g transform="translate(0.000000,500.000000) scale(0.100000,-0.100000)"
fill="#000000" stroke="none">
<path d="M4041 4643 c-22 -21 -49 -78 -102 -210 -39 -101 -75 -183 -78 -183
-4 0 -67 53 -140 118 -73 64 -145 125 -161 135 -40 26 -75 10 -91 -42 -10 -34
-8 -54 11 -136 51 -225 98 -311 140 -260 10 12 9 33 -4 108 -10 50 -19 102
-22 114 -4 14 29 -12 93 -73 120 -116 170 -149 216 -140 19 3 43 15 54 25 11
11 47 92 79 180 33 89 61 161 64 161 3 0 40 -74 84 -165 90 -188 133 -245 187
-245 28 0 43 10 97 65 34 36 64 65 66 65 2 0 -5 -26 -16 -57 -24 -73 -57 -219
-58 -255 0 -16 -6 -28 -12 -28 -7 0 -67 11 -133 25 -183 38 -350 49 -503 36
-188 -17 -212 -26 -212 -83 l0 -27 133 6 c196 9 394 -19 652 -92 50 -13 106
-25 126 -25 60 0 73 25 104 210 8 52 38 180 66 283 52 193 63 283 40 311 -32
38 -52 21 -240 -203 -98 -116 -105 -122 -119 -105 -20 27 -45 85 -123 289 -72
187 -96 225 -144 225 -14 0 -38 -12 -54 -27z"/>
<path d="M2467 3992 c-4 -37 -7 -325 -7 -639 l0 -573 188 1 c103 1 273 4 378
8 l190 6 62 72 63 73 14 446 15 446 -63 82 -63 81 -319 26 c-176 15 -350 30
-386 33 l-66 6 -6 -68z m470 -288 l102 -29 -6 -290 c-3 -159 -7 -291 -8 -292
-2 -3 -209 -51 -211 -49 -1 1 -5 158 -9 350 -7 337 -6 349 11 344 11 -3 65
-18 121 -34z"/>
<path d="M700 4015 c-4 -5 -17 -32 -29 -59 l-22 -50 7 -603 7 -603 53 -30 54
-30 395 0 395 0 35 68 35 67 -6 -93 -6 -93 133 3 134 3 10 147 c6 80 14 150
18 155 8 7 187 22 196 16 2 -1 6 -75 10 -165 l6 -163 135 3 c74 2 137 7 140
10 3 4 1 216 -5 472 l-10 466 -40 63 -40 63 -120 -6 c-66 -3 -198 -9 -293 -12
l-173 -7 -29 -34 c-22 -25 -30 -44 -30 -73 0 -83 -31 -735 -36 -739 -2 -2 -4
54 -4 126 l0 130 -87 7 c-49 3 -123 9 -165 12 -88 7 -78 19 -98 -113 l-12 -72
-46 4 c-26 3 -77 7 -114 11 l-68 6 0 137 c0 76 -3 267 -7 425 l-6 287 118 -3
119 -3 7 -30 c4 -16 10 -60 14 -97 l7 -68 167 0 168 0 6 78 c4 42 9 127 13
187 l6 110 -54 46 -54 47 -413 3 c-268 3 -415 0 -421 -6z m1410 -761 l0 -124
-42 0 c-24 0 -66 3 -95 6 l-51 7 5 111 c3 61 7 113 9 115 4 5 158 18 167 13 4
-2 7 -59 7 -128z"/>
<path d="M3560 3412 c0 -21 -3 -80 -6 -130 l-7 -92 332 0 331 0 0 119 0 119
-152 6 c-84 3 -231 8 -325 11 l-173 6 0 -39z"/>
<path d="M3350 2858 c0 -62 3 -150 7 -195 l6 -83 76 0 c42 0 114 -3 159 -7
l84 -6 -3 -583 c-2 -321 -1 -585 2 -588 4 -5 400 32 406 38 4 3 43 975 43
1067 l0 66 160 8 160 7 0 87 c0 49 3 136 7 194 l6 107 -556 0 -557 0 0 -112z"/>
<path d="M2326 2480 l-26 -40 0 -597 0 -598 54 -33 54 -32 380 0 380 0 30 54
c39 72 42 120 43 724 l1 484 -38 39 -38 39 -407 0 -406 0 -27 -40z m556 -269
c4 -4 5 -176 1 -383 l-6 -375 -66 4 c-36 2 -85 6 -108 9 l-43 5 0 282 c0 155
-3 326 -7 381 l-6 98 114 -7 c63 -4 117 -10 121 -14z"/>
<path d="M857 2156 c-4 -182 -7 -526 -7 -764 l-1 -432 143 1 c79 1 285 4 459
7 l316 7 71 58 72 58 0 260 0 261 -46 53 -46 54 26 34 26 33 -12 255 -11 254
-55 72 -55 72 -71 5 c-39 3 -217 13 -396 21 -179 8 -343 17 -366 19 l-41 3 -6
-331z m510 8 c97 -15 112 -20 117 -38 3 -12 6 -74 6 -140 l0 -118 -27 5 c-16
3 -72 11 -125 18 l-98 12 0 32 c0 18 -3 80 -7 138 -5 88 -4 107 8 107 8 0 64
-7 126 -16z m165 -708 c-2 -71 -9 -126 -16 -132 -6 -7 -63 -19 -126 -28 -63
-10 -123 -20 -132 -22 -17 -5 -18 8 -18 174 l0 179 149 -25 148 -25 -5 -121z"/>
<path d="M3415 1160 c-1 -3 -4 -77 -6 -165 l-4 -160 428 -3 427 -3 0 159 0
160 -317 6 c-175 4 -365 7 -421 9 -57 1 -105 0 -107 -3z"/>
<path d="M2055 1076 c-2 -6 -6 -64 -8 -128 l-5 -118 334 0 334 0 0 120 c0 116
-1 120 -22 124 -13 3 -159 7 -326 9 -218 3 -305 1 -307 -7z"/>
</g>
</svg>
